<svg width="20" height="20" viewBox="0 0 20 20" fill="none" xmlns="http://www.w3.org/2000/svg">
<path d="M14.375 5.62511V4.66886C14.3751 4.51733 14.342 4.36762 14.2779 4.23032C14.2138 4.09302 14.1203 3.97148 14.004 3.87429C13.8878 3.77711 13.7516 3.70666 13.6051 3.66792C13.4586 3.62918 13.3054 3.6231 13.1562 3.65011L4.40625 5.24073C3.59375 5.39073 2.8125 6.04073 2.8125 6.87511" stroke="#959595" stroke-linecap="round" stroke-linejoin="round"/>
<path d="M14.8125 9.375V6.875C14.8125 6.54348 14.6976 6.22554 14.493 5.99112C14.2884 5.7567 14.0109 5.625 13.7216 5.625H3.90341C3.61408 5.625 3.3366 5.7567 3.13202 5.99112C2.92743 6.22554 2.8125 6.54348 2.8125 6.875V15.3125C2.8125 15.644 2.92743 15.962 3.13202 16.1964C3.3366 16.4308 3.61408 16.5625 3.90341 16.5625H13.7216C14.0109 16.5625 14.2884 16.4308 14.493 16.1964C14.6976 15.962 14.8125 15.644 14.8125 15.3125V12.8125" stroke="#959595" stroke-linecap="round" stroke-linejoin="round"/>
<path d="M13.125 12.8125H16.875C17.0408 12.8125 17.1997 12.7467 17.3169 12.6294C17.4342 12.5122 17.5 12.3533 17.5 12.1875V10C17.5 9.83424 17.4342 9.67527 17.3169 9.55806C17.1997 9.44085 17.0408 9.375 16.875 9.375H13.125L12.1875 11.0938L13.125 12.8125Z" stroke="#959595" stroke-linecap="round" stroke-linejoin="round"/>
<path d="M14.375 11.7188C14.7202 11.7188 15 11.4389 15 11.0938C15 10.7486 14.7202 10.4688 14.375 10.4688C14.0298 10.4688 13.75 10.7486 13.75 11.0938C13.75 11.4389 14.0298 11.7188 14.375 11.7188Z" fill="#959595"/>
</svg>
