<svg width="16" height="18" viewBox="0 0 16 18" fill="none" xmlns="http://www.w3.org/2000/svg">
<path d="M15.5854 15.0914C16.1382 15.6687 16.1382 16.5667 15.5854 17.144C15.309 17.4327 14.9712 17.561 14.6027 17.561C14.2342 17.561 13.8964 17.4327 13.62 17.144L8 11.2747L2.38004 17.144C2.10365 17.4327 1.76584 17.561 1.39731 17.561C1.02879 17.561 0.690979 17.4327 0.414587 17.144C-0.138196 16.5667 -0.138196 15.6687 0.414587 15.0914L6.03455 9.22209L0.414587 3.35281C-0.138196 2.77551 -0.138196 1.87747 0.414587 1.30017C0.967371 0.722861 1.82726 0.722861 2.38004 1.30017L8 7.16945L13.62 1.30017C14.1727 0.722861 15.0326 0.722861 15.5854 1.30017C16.1382 1.87747 16.1382 2.77551 15.5854 3.35281L9.96545 9.22209L15.5854 15.0914Z" fill="white" fill-opacity="0.75"/>
</svg>
