<svg width="20" height="16" viewBox="0 0 20 16" fill="none" xmlns="http://www.w3.org/2000/svg">
<path d="M15 5V3C15 1.89543 14.1046 1 13 1H3C1.89543 1 1 1.89543 1 3V9C1 10.1046 1.89543 11 3 11H5M7 15H17C18.1046 15 19 14.1046 19 13V7C19 5.89543 18.1046 5 17 5H7C5.89543 5 5 5.89543 5 7V13C5 14.1046 5.89543 15 7 15ZM14 10C14 11.1046 13.1046 12 12 12C10.8954 12 10 11.1046 10 10C10 8.89543 10.8954 8 12 8C13.1046 8 14 8.89543 14 10Z" stroke="#959595" stroke-width="2" stroke-linecap="round" stroke-linejoin="round"/>
</svg>
