<svg width="25" height="25" viewBox="0 0 25 25" fill="none" xmlns="http://www.w3.org/2000/svg">
<path d="M23.2143 2.27273H20.2381V3.40909H23.2143C23.3722 3.40909 23.5236 3.46895 23.6352 3.57551C23.7468 3.68206 23.8095 3.82658 23.8095 3.97727V15.9091H22.619V5.11364C22.619 4.96294 22.5563 4.81843 22.4447 4.71187C22.3331 4.60532 22.1817 4.54545 22.0238 4.54545H20.1845V5.68182H21.4286V15.9091H19.6429V0.568182C19.6429 0.417491 19.5801 0.272971 19.4685 0.166417C19.3569 0.0598618 19.2055 0 19.0476 0H5.95238C5.79451 0 5.64311 0.0598618 5.53148 0.166417C5.41986 0.272971 5.35714 0.417491 5.35714 0.568182V15.9091H3.57143V5.68182H4.7619V4.54545H2.97619C2.81832 4.54545 2.66692 4.60532 2.55529 4.71187C2.44366 4.81843 2.38095 4.96294 2.38095 5.11364V15.9091H1.19048V3.97727C1.19048 3.82658 1.25319 3.68206 1.36482 3.57551C1.47645 3.46895 1.62785 3.40909 1.78571 3.40909H4.7619V2.27273H1.78571C1.31211 2.27273 0.85791 2.45231 0.523024 2.77198C0.188137 3.09164 0 3.5252 0 3.97727V19.8864C0 20.3384 0.188137 20.772 0.523024 21.0917C0.85791 21.4113 1.31211 21.5909 1.78571 21.5909H10.119V23.8636H7.14286V25H17.8571V23.8636H14.881V21.5909H23.2143C23.6879 21.5909 24.1421 21.4113 24.477 21.0917C24.8119 20.772 25 20.3384 25 19.8864V3.97727C25 3.5252 24.8119 3.09164 24.477 2.77198C24.1421 2.45231 23.6879 2.27273 23.2143 2.27273ZM6.54762 1.13636H18.4524V15.9091H6.54762V1.13636ZM13.6905 23.8636H11.3095V21.5909H13.6905V23.8636ZM23.2143 20.4545H1.78571C1.62785 20.4545 1.47645 20.3947 1.36482 20.2881C1.25319 20.1816 1.19048 20.0371 1.19048 19.8864V17.0455H23.8095V19.8864C23.8095 20.0371 23.7468 20.1816 23.6352 20.2881C23.5236 20.3947 23.3722 20.4545 23.2143 20.4545ZM10.119 18.1818H14.881V19.3182H10.119V18.1818ZM12.5 3.97727C11.5582 3.97727 10.6375 4.24386 9.85443 4.74332C9.07134 5.24278 8.46099 5.95268 8.10057 6.78326C7.74016 7.61383 7.64585 8.52777 7.82959 9.4095C8.01333 10.2912 8.46686 11.1012 9.13282 11.7368C9.79879 12.3725 10.6473 12.8055 11.571 12.9808C12.4947 13.1562 13.4522 13.0662 14.3223 12.7222C15.1924 12.3781 15.9361 11.7955 16.4594 11.048C16.9826 10.3005 17.2619 9.42173 17.2619 8.52273C17.2619 7.3172 16.7602 6.16104 15.8672 5.30861C14.9741 4.45617 13.7629 3.97727 12.5 3.97727ZM12.5 11.9318C11.7936 11.9318 11.1031 11.7319 10.5158 11.3573C9.9285 10.9827 9.47074 10.4503 9.20043 9.82733C8.93012 9.2044 8.85939 8.51895 8.9972 7.85765C9.135 7.19635 9.47514 6.58891 9.97462 6.11214C10.4741 5.63537 11.1105 5.31068 11.8032 5.17914C12.496 5.0476 13.2141 5.11511 13.8667 5.37314C14.5193 5.63116 15.0771 6.06812 15.4695 6.62874C15.862 7.18936 16.0714 7.84847 16.0714 8.52273C16.0714 9.42687 15.6952 10.294 15.0254 10.9333C14.3556 11.5726 13.4472 11.9318 12.5 11.9318ZM13.8631 6.98295L14.7083 7.78977L12.3274 10.0625C12.272 10.1158 12.2062 10.158 12.1337 10.1869C12.0611 10.2157 11.9833 10.2306 11.9048 10.2306C11.8262 10.2306 11.7484 10.2157 11.6758 10.1869C11.6033 10.158 11.5375 10.1158 11.4821 10.0625L10.2917 8.92614L11.1369 8.11932L11.9048 8.85795L13.8631 6.98295Z" fill="#959595"/>
</svg>
