<svg width="30" height="30" viewBox="0 0 30 30" fill="none" xmlns="http://www.w3.org/2000/svg">
<path d="M15.3831 14.0222C13.1532 13.4978 12.4361 12.9556 12.4361 12.1111C12.4361 11.1422 13.4283 10.4667 15.0884 10.4667C16.8369 10.4667 17.4853 11.2222 17.5442 12.3333H19.7151C19.6464 10.8044 18.6149 9.4 16.5619 8.94667V7H13.6149V8.92C11.7092 9.29333 10.1768 10.4133 10.1768 12.1289C10.1768 14.1822 12.053 15.2044 14.7937 15.8C17.2495 16.3333 17.7407 17.1156 17.7407 17.9422C17.7407 18.5556 17.2593 19.5333 15.0884 19.5333C13.0648 19.5333 12.2692 18.7156 12.1611 17.6667H10C10.1179 19.6133 11.7289 20.7067 13.6149 21.0711V23H16.5619V21.0889C18.4774 20.76 20 19.7556 20 17.9333C20 15.4089 17.613 14.5467 15.3831 14.0222Z" fill="#23E464"/>
<circle cx="15" cy="15" r="14" fill="#23E464" fill-opacity="0.2" stroke="#23E464" stroke-width="2"/>
</svg>
