<svg width="33" height="33" viewBox="0 0 33 33" fill="none" xmlns="http://www.w3.org/2000/svg">
<path d="M5.5 17.8755C6.25939 17.8755 6.875 17.2599 6.875 16.5005C6.875 15.7411 6.25939 15.1255 5.5 15.1255C4.74061 15.1255 4.125 15.7411 4.125 16.5005C4.125 17.2599 4.74061 17.8755 5.5 17.8755Z" fill="#959595"/>
<path d="M27.5825 15.1255H10.9175C10.2037 15.1255 9.625 15.7042 9.625 16.418V16.583C9.625 17.2968 10.2037 17.8755 10.9175 17.8755H27.5825C28.2963 17.8755 28.875 17.2968 28.875 16.583V16.418C28.875 15.7042 28.2963 15.1255 27.5825 15.1255Z" fill="#959595"/>
<path d="M27.5825 21.9995H5.4175C4.70367 21.9995 4.125 22.5782 4.125 23.292V23.457C4.125 24.1708 4.70367 24.7495 5.4175 24.7495H27.5825C28.2963 24.7495 28.875 24.1708 28.875 23.457V23.292C28.875 22.5782 28.2963 21.9995 27.5825 21.9995Z" fill="#959595"/>
<path d="M27.5825 8.25H5.4175C4.70367 8.25 4.125 8.82867 4.125 9.5425V9.7075C4.125 10.4213 4.70367 11 5.4175 11H27.5825C28.2963 11 28.875 10.4213 28.875 9.7075V9.5425C28.875 8.82867 28.2963 8.25 27.5825 8.25Z" fill="#959595"/>
</svg>
