<svg width="26" height="27" viewBox="0 0 26 27" fill="none" xmlns="http://www.w3.org/2000/svg">
<path d="M9.40911 24.7112V20.8375C9.40909 19.8522 10.2124 19.0516 11.2076 19.045H14.8532C15.8531 19.045 16.6638 19.8475 16.6638 20.8375V24.7233C16.6636 25.5598 17.338 26.2436 18.1828 26.2632H20.6132C23.0359 26.2632 25 24.3188 25 21.9202V10.9004C24.9871 9.95683 24.5395 9.07076 23.7848 8.49436L15.4729 1.86564C14.0168 0.711452 11.9468 0.711452 10.4906 1.86564L2.21519 8.50639C1.45759 9.08045 1.00933 9.968 1 10.9125V21.9202C1 24.3188 2.96405 26.2632 5.38684 26.2632H7.81721C8.68297 26.2632 9.38481 25.5683 9.38481 24.7112" stroke="#959595" stroke-width="1.2" stroke-linecap="round" stroke-linejoin="round"/>
</svg>
