<svg width="31" height="28" viewBox="0 0 31 28" fill="none" xmlns="http://www.w3.org/2000/svg">
<g clip-path="url(#clip0_2549_698)">
<path fill-rule="evenodd" clip-rule="evenodd" d="M1.31512 13.5655L7.37495 13.4032L7.71319 26.0282L1.65335 26.1905L1.31512 13.5655ZM9.87594 4.92869L18.331 1.36779C18.4324 1.32504 18.5399 1.32502 18.6337 1.36254L18.6336 1.35968L27.3832 4.59978C27.5978 4.67982 27.7336 4.9164 27.7208 5.16839C27.7235 5.17976 27.7239 5.19405 27.7243 5.20833L28.0079 15.793L28.3827 15.5628C30.7014 14.597 32.4452 17.4214 30.7708 19.4652C27.4559 22.4451 24.0418 24.9158 20.535 26.9315C17.9997 28.841 15.4135 28.8474 12.7838 27.1391L8.90749 24.9352L8.62484 14.3849L9.7182 14.3556L9.48079 5.49406C9.47077 5.21122 9.64265 4.97212 9.87594 4.92869ZM12.6761 14.2763C14.4039 14.5904 16.1513 15.6359 17.9033 16.8558L18.2621 16.8462L18.1064 11.0338L10.6719 7.56401L10.853 14.3252L12.6761 14.2763ZM19.58 16.8109L21.0541 16.7714C22.482 16.8333 23.2741 18.505 21.9177 19.6537C21.2811 20.2313 20.5131 20.4635 19.6797 20.5316L19.7171 21.9289C21.2763 21.7842 22.5489 21.244 23.3356 19.7072L23.7721 18.4058L26.8883 16.4836L26.6358 7.05911L19.4244 11.0042L19.58 16.8109ZM18.3633 20.5325C18.2043 20.5225 18.0428 20.5125 17.8837 20.4996C16.8522 20.4672 16.8517 22.0886 17.9257 22.0656C18.0822 22.0757 18.2431 22.0628 18.4037 22.0413L18.3922 21.6127L18.3633 20.5325ZM18.5162 2.90419L11.3147 5.93965L18.7305 9.62728L25.9437 5.6564L18.5162 2.90419Z" fill="#959595"/>
</g>
<defs>
<clipPath id="clip0_2549_698">
<rect width="30" height="27" fill="white" transform="translate(0 0.845459) rotate(-1.53464)"/>
</clipPath>
</defs>
</svg>
