<?xml version="1.0" standalone="no"?>
<!DOCTYPE svg PUBLIC "-//W3C//DTD SVG 20010904//EN"
 "http://www.w3.org/TR/2001/REC-SVG-20010904/DTD/svg10.dtd">
<svg version="1.0" xmlns="http://www.w3.org/2000/svg"
 width="512.000000pt" height="512.000000pt" viewBox="0 0 512.000000 512.000000"
 preserveAspectRatio="xMidYMid meet">

<g transform="translate(0.000000,512.000000) scale(0.100000,-0.100000)"
fill="#000000" stroke="none">
<path d="M1015 5107 c-109 -37 -177 -95 -222 -192 l-28 -60 -3 -2042 -2 -2043
-130 0 c-143 0 -183 -10 -233 -58 -64 -61 -71 -87 -75 -309 l-4 -201 -110 -4
c-106 -3 -111 -4 -134 -31 -33 -38 -33 -96 0 -134 l24 -28 984 -3 c727 -2 990
1 1011 9 49 20 69 82 45 134 -19 43 -56 55 -163 55 l-95 0 0 203 c0 223 -7
253 -66 309 -52 48 -91 58 -234 58 l-130 0 0 364 c0 208 -4 376 -10 390 -23
61 -112 79 -159 32 l-26 -26 -5 -378 -5 -377 -142 -3 -143 -3 0 716 0 715
1624 0 1623 0 32 22 c18 13 196 210 397 438 270 306 373 430 394 475 58 117
56 257 -5 380 -28 57 -104 149 -400 485 -202 228 -376 421 -388 430 -20 13
-177 15 -1403 18 l-1382 2 -4 203 c-3 193 -5 205 -30 258 -56 121 -163 196
-294 204 -43 3 -84 0 -109 -8z m173 -215 c55 -39 62 -71 62 -266 l0 -176 -146
0 -145 0 3 189 c3 173 5 192 24 218 47 64 139 80 202 35z m3293 -1032 c189
-214 354 -409 367 -434 30 -57 32 -135 5 -197 -13 -28 -148 -189 -367 -436
l-347 -393 -1589 0 -1590 0 0 925 0 925 1588 0 1589 0 344 -390z m-2801 -3475
l0 -185 -580 0 -580 0 0 169 c0 93 3 176 6 185 6 14 66 16 580 16 l574 0 0
-185z"/>
<path d="M1305 3956 c-17 -7 -36 -25 -43 -40 -17 -37 -17 -1183 -1 -1220 15
-33 71 -59 108 -51 16 3 39 17 52 31 l24 26 0 604 0 604 -25 25 c-31 31 -76
39 -115 21z"/>
<path d="M1997 3789 c-46 -27 -47 -42 -47 -499 0 -460 1 -474 49 -500 35 -18
88 -12 118 14 l28 24 3 443 c3 466 1 484 -42 514 -24 17 -83 19 -109 4z"/>
<path d="M2470 3789 c-32 -13 -77 -56 -98 -94 -15 -26 -17 -78 -20 -405 -4
-420 -1 -440 56 -473 29 -17 39 -18 72 -8 62 18 70 38 70 172 l0 117 178 4
c188 5 218 11 266 56 51 48 56 73 56 297 0 224 -5 249 -56 297 -16 15 -42 32
-57 37 -36 14 -433 13 -467 0z m380 -334 l0 -145 -150 0 -150 0 0 145 0 145
150 0 150 0 0 -145z"/>
<path d="M3327 3779 c-20 -11 -49 -38 -65 -61 l-27 -42 -3 -373 c-3 -350 -1
-376 16 -417 44 -97 118 -120 372 -114 181 5 224 16 269 74 39 50 42 84 39
465 l-3 365 -28 42 c-50 76 -75 82 -319 82 -193 -1 -217 -3 -251 -21z m403
-494 l0 -315 -150 0 -150 0 0 315 0 315 150 0 150 0 0 -315z"/>
<path d="M1300 1999 c-52 -20 -76 -90 -50 -140 16 -30 68 -52 105 -45 85 16
106 131 32 176 -35 22 -50 23 -87 9z"/>
</g>
</svg>
