<svg width="22" height="30" viewBox="0 0 22 30" fill="none" xmlns="http://www.w3.org/2000/svg">
<path d="M10.4 20.7845C10.3437 20.7845 10.2922 20.7798 10.2359 20.7751C9.88437 20.7376 9.6078 20.5735 9.45312 20.3204L7.84999 17.7376C7.78437 17.6298 7.81718 17.4891 7.92499 17.4188C8.0328 17.3532 8.17343 17.386 8.24374 17.4938L9.84687 20.0766C9.92655 20.2032 10.0859 20.2923 10.2922 20.3157C10.4984 20.3391 10.7187 20.297 10.8781 20.1985C11.1125 20.0532 11.2906 19.7391 11.2906 19.4673C11.2906 19.397 11.2766 19.3313 11.2531 19.2751C10.6109 18.9563 10.1187 18.4079 9.74374 17.597C9.69218 17.4798 9.73905 17.3438 9.85624 17.2923C9.97343 17.2407 10.1094 17.2923 10.1609 17.4048C10.5031 18.1501 10.9344 18.6235 11.5156 18.8907C11.5578 18.9095 11.5906 18.9423 11.6141 18.9798C11.7031 19.1204 11.7453 19.2845 11.7453 19.4673C11.7453 19.8938 11.4828 20.3579 11.1125 20.5876C10.9109 20.7141 10.6578 20.7845 10.4 20.7845Z" fill="white"/>
<path d="M7.3953 17.8875C7.30155 17.8875 7.21718 17.8312 7.18436 17.7469L5.88124 14.6156C5.84374 14.5265 5.86718 14.4187 5.94218 14.3531L12.2328 8.71873C12.3266 8.63435 12.4719 8.64373 12.5609 8.73748C12.6453 8.83123 12.6359 8.97654 12.5422 9.0656L6.36874 14.5922L7.5453 17.4187L15.8187 16.9219C15.9406 16.9125 16.0531 17.0109 16.0625 17.1375C16.0719 17.264 15.9734 17.3719 15.8469 17.3812L7.41405 17.8875C7.40468 17.8875 7.39999 17.8875 7.3953 17.8875ZM15.9453 13.7765C15.8562 13.7765 15.7672 13.725 15.7344 13.6359C15.6875 13.5187 15.7391 13.3828 15.8562 13.3359C16.4094 13.1062 16.6766 12.464 16.4422 11.9062C16.2125 11.3484 15.5703 11.0859 15.0172 11.3156C14.9 11.3625 14.7641 11.3109 14.7172 11.189C14.6703 11.0719 14.7219 10.9359 14.8391 10.889C15.2234 10.7297 15.6453 10.7297 16.025 10.889C16.4094 11.0484 16.7047 11.3437 16.8641 11.7281C17.1922 12.5203 16.8172 13.4297 16.0297 13.7578C16.0016 13.7719 15.9734 13.7765 15.9453 13.7765Z" fill="white"/>
<path d="M16.2266 18C16.1703 18 16.1141 17.9906 16.0625 17.9672C15.9547 17.925 15.8703 17.8406 15.8281 17.7328L11.9703 8.48438C11.9234 8.37656 11.9234 8.25937 11.9703 8.15156C12.0125 8.04375 12.0969 7.95937 12.2047 7.91719L13.2031 7.5C13.3109 7.45313 13.4281 7.45313 13.5359 7.5C13.6437 7.54219 13.7281 7.62656 13.7703 7.73438L17.6234 16.9828C17.7172 17.2031 17.6094 17.4609 17.3891 17.5547L16.3906 17.9719C16.3391 17.9906 16.2828 18 16.2266 18ZM13.3437 7.9125L12.3828 8.34375L16.25 17.5547L17.1875 17.1375L13.3437 7.9125ZM6.01718 18.4125C5.90937 18.4125 5.80156 18.3891 5.70312 18.3516C5.49687 18.2672 5.33749 18.1078 5.25312 17.9016L4.40937 15.8766C4.23124 15.4547 4.43281 14.9672 4.85468 14.7891L6.00312 14.3109C6.12031 14.2641 6.25624 14.3156 6.30312 14.4375C6.34999 14.5547 6.29843 14.6906 6.18124 14.7375L5.03281 15.2156C4.84531 15.2953 4.75624 15.5109 4.83593 15.6984L5.67968 17.7234C5.71718 17.8125 5.78749 17.8875 5.88124 17.9203C5.97031 17.9578 6.07343 17.9578 6.16249 17.9203L7.31093 17.4422C7.42812 17.3953 7.56406 17.4469 7.61093 17.5688C7.65781 17.6859 7.60624 17.8219 7.48906 17.8687L6.34062 18.3469C6.23281 18.3938 6.12499 18.4125 6.01718 18.4125ZM20.8156 25.8422H1.18437C1.05781 25.8422 0.954681 25.7391 0.954681 25.6125C0.954681 25.4859 1.05781 25.3828 1.18437 25.3828H20.8156C20.9422 25.3828 21.0453 25.4859 21.0453 25.6125C21.0453 25.7391 20.9422 25.8422 20.8156 25.8422Z" fill="white"/>
<path d="M19.9953 30H2.00468C1.42343 30 0.954681 29.5266 0.954681 28.95V1.05469C0.954681 0.473437 1.42812 0 2.00468 0H19.9953C20.5766 0 21.0453 0.473437 21.0453 1.05469V28.95C21.0453 29.5266 20.5766 30 19.9953 30ZM2.00468 0.459375C1.68124 0.459375 1.41406 0.726562 1.41406 1.05469V28.95C1.41406 29.2734 1.67656 29.5406 2.00468 29.5406H19.9953C20.3187 29.5406 20.5859 29.2781 20.5859 28.95V1.05469C20.5859 0.726562 20.3234 0.459375 19.9953 0.459375H2.00468Z" fill="white"/>
<path d="M11 28.8751C10.3344 28.8751 9.79531 28.336 9.79531 27.6704C9.79531 27.0048 10.3344 26.4657 11 26.4657C11.6656 26.4657 12.2047 27.0048 12.2047 27.6704C12.2047 28.336 11.6656 28.8751 11 28.8751ZM11 26.9298C10.5922 26.9298 10.2594 27.2626 10.2594 27.6704C10.2594 28.0782 10.5922 28.411 11 28.411C11.4078 28.411 11.7406 28.0782 11.7406 27.6704C11.7406 27.2626 11.4078 26.9298 11 26.9298ZM20.8156 3.62822H1.18437C1.05781 3.62822 0.954681 3.5251 0.954681 3.39854C0.954681 3.27197 1.05781 3.16885 1.18437 3.16885H20.8156C20.9422 3.16885 21.0453 3.27197 21.0453 3.39854C21.0453 3.5251 20.9422 3.62822 20.8156 3.62822ZM13.2078 2.02041H8.79218C8.66562 2.02041 8.56249 1.91729 8.56249 1.79072C8.56249 1.66416 8.66562 1.56104 8.79218 1.56104H13.2078C13.3344 1.56104 13.4375 1.66416 13.4375 1.79072C13.4375 1.91729 13.3344 2.02041 13.2078 2.02041Z" fill="white"/>
</svg>
