<svg width="28" height="29" viewBox="0 0 28 29" fill="none" xmlns="http://www.w3.org/2000/svg">
<path d="M25.4375 12.8594H16.6875C16.5425 12.8594 16.4034 12.8018 16.3008 12.6992C16.1982 12.5966 16.1406 12.4575 16.1406 12.3125V5.75C16.1406 5.60496 16.1982 5.46586 16.3008 5.3633C16.4034 5.26074 16.5425 5.20312 16.6875 5.20312H25.4375C25.5825 5.20312 25.7216 5.26074 25.8242 5.3633C25.9268 5.46586 25.9844 5.60496 25.9844 5.75V12.3125C25.9844 12.4575 25.9268 12.5966 25.8242 12.6992C25.7216 12.8018 25.5825 12.8594 25.4375 12.8594ZM17.2344 11.7656H24.8906V6.29688H17.2344V11.7656Z" fill="#959595"/>
<path d="M27.0781 6.29693H15.0469C14.9345 6.29688 14.8248 6.26221 14.7329 6.19762C14.6409 6.13304 14.571 6.04169 14.5328 5.93599C14.495 5.82968 14.491 5.71428 14.5213 5.6056C14.5517 5.49692 14.6149 5.40029 14.7024 5.32896L20.718 0.407087C20.8154 0.328048 20.9371 0.284912 21.0625 0.284912C21.188 0.284912 21.3096 0.328048 21.407 0.407087L27.4227 5.32896C27.5101 5.40029 27.5733 5.49692 27.6037 5.6056C27.634 5.71428 27.63 5.82968 27.5922 5.93599C27.554 6.04169 27.4841 6.13304 27.3922 6.19762C27.3002 6.26221 27.1905 6.29688 27.0781 6.29693ZM16.5781 5.20318H25.5469L21.0625 1.53365L16.5781 5.20318ZM22.1563 12.8594H19.9688C19.8237 12.8594 19.6846 12.8018 19.5821 12.6993C19.4795 12.5967 19.4219 12.4576 19.4219 12.3126V8.48443C19.4219 8.33939 19.4795 8.20029 19.5821 8.09773C19.6846 7.99517 19.8237 7.93756 19.9688 7.93756H22.1563C22.3013 7.93756 22.4404 7.99517 22.543 8.09773C22.6455 8.20029 22.7031 8.33939 22.7031 8.48443V12.3126C22.7031 12.4576 22.6455 12.5967 22.543 12.6993C22.4404 12.8018 22.3013 12.8594 22.1563 12.8594ZM20.5156 11.7657H21.6094V9.03131H20.5156V11.7657Z" fill="#959595"/>
<path d="M26.5312 12.8594H15.5938C15.4487 12.8594 15.3096 12.8018 15.2071 12.6992C15.1045 12.5966 15.0469 12.4575 15.0469 12.3125C15.0469 12.1675 15.1045 12.0284 15.2071 11.9258C15.3096 11.8232 15.4487 11.7656 15.5938 11.7656H26.5312C26.6763 11.7656 26.8154 11.8232 26.9179 11.9258C27.0205 12.0284 27.0781 12.1675 27.0781 12.3125C27.0781 12.4575 27.0205 12.5966 26.9179 12.6992C26.8154 12.8018 26.6763 12.8594 26.5312 12.8594ZM14.5 28.1719H1.375C1.22996 28.1719 1.09086 28.1143 0.988301 28.0117C0.885742 27.9091 0.828125 27.77 0.828125 27.625V19.9688C0.828125 19.8237 0.885742 19.6846 0.988301 19.5821C1.09086 19.4795 1.22996 19.4219 1.375 19.4219H14.5C14.645 19.4219 14.7841 19.4795 14.8867 19.5821C14.9893 19.6846 15.0469 19.8237 15.0469 19.9688V27.625C15.0469 27.77 14.9893 27.9091 14.8867 28.0117C14.7841 28.1143 14.645 28.1719 14.5 28.1719ZM1.92188 27.0781H13.9531V20.5156H1.92188V27.0781Z" fill="#959595"/>
<path d="M7.9375 26.5312C7.39669 26.5312 6.86803 26.3709 6.41836 26.0704C5.9687 25.77 5.61822 25.3429 5.41127 24.8433C5.20431 24.3436 5.15016 23.7938 5.25567 23.2634C5.36117 22.733 5.6216 22.2458 6.004 21.8634C6.38641 21.481 6.87363 21.2205 7.40405 21.115C7.93447 21.0095 8.48426 21.0637 8.9839 21.2706C9.48354 21.4776 9.91059 21.8281 10.2111 22.2777C10.5115 22.7274 10.6719 23.2561 10.6719 23.7969C10.6719 24.5221 10.3838 25.2176 9.871 25.7304C9.3582 26.2432 8.6627 26.5312 7.9375 26.5312ZM7.9375 22.1562C7.61301 22.1562 7.29582 22.2525 7.02602 22.4327C6.75622 22.613 6.54593 22.8693 6.42176 23.169C6.29759 23.4688 6.2651 23.7987 6.3284 24.1169C6.3917 24.4352 6.54796 24.7275 6.7774 24.957C7.00685 25.1864 7.29918 25.3427 7.61743 25.406C7.93568 25.4693 8.26555 25.4368 8.56534 25.3126C8.86513 25.1884 9.12136 24.9782 9.30163 24.7084C9.4819 24.4386 9.57812 24.1214 9.57812 23.7969C9.57812 23.3618 9.40527 22.9445 9.0976 22.6368C8.78992 22.3291 8.37262 22.1562 7.9375 22.1562ZM4.65625 18.3281C4.51121 18.3281 4.37211 18.2705 4.26955 18.1679C4.16699 18.0654 4.10938 17.9263 4.10938 17.7812V15.0469C4.10937 13.0163 4.91601 11.0689 6.35184 9.63309C7.78766 8.19726 9.73506 7.39063 11.7656 7.39062H14.5C14.645 7.39062 14.7841 7.44824 14.8867 7.5508C14.9893 7.65336 15.0469 7.79246 15.0469 7.9375C15.0469 8.08254 14.9893 8.22164 14.8867 8.3242C14.7841 8.42676 14.645 8.48438 14.5 8.48438H11.7656C10.0251 8.48438 8.35594 9.17578 7.12524 10.4065C5.89453 11.6372 5.20312 13.3064 5.20312 15.0469V17.7812C5.20312 17.9263 5.14551 18.0654 5.04295 18.1679C4.94039 18.2705 4.80129 18.3281 4.65625 18.3281Z" fill="#959595"/>
<path d="M4.65626 18.3281C4.58429 18.3285 4.51294 18.3147 4.44631 18.2875C4.37968 18.2603 4.31908 18.2202 4.26798 18.1695L2.90079 16.8023C2.79781 16.6994 2.73996 16.5597 2.73996 16.4141C2.73996 16.2684 2.79781 16.1288 2.90079 16.0258C3.00377 15.9228 3.14344 15.8649 3.28907 15.8649C3.43471 15.8649 3.57437 15.9228 3.67735 16.0258L4.65626 17.0102L5.63517 16.0258C5.68616 15.9748 5.74669 15.9343 5.81331 15.9067C5.87993 15.8792 5.95134 15.8649 6.02345 15.8649C6.09556 15.8649 6.16696 15.8792 6.23358 15.9067C6.3002 15.9343 6.36074 15.9748 6.41173 16.0258C6.46272 16.0768 6.50317 16.1373 6.53076 16.2039C6.55836 16.2705 6.57256 16.342 6.57256 16.4141C6.57256 16.4862 6.55836 16.5576 6.53076 16.6242C6.50317 16.6908 6.46272 16.7514 6.41173 16.8023L5.04454 18.1695C4.99344 18.2202 4.93284 18.2603 4.86621 18.2875C4.79958 18.3147 4.72823 18.3285 4.65626 18.3281ZM16.6875 24.8906C16.5425 24.8906 16.4034 24.833 16.3008 24.7304C16.1982 24.6279 16.1406 24.4888 16.1406 24.3438C16.1406 24.1987 16.1982 24.0596 16.3008 23.9571C16.4034 23.8545 16.5425 23.7969 16.6875 23.7969C18.428 23.7969 20.0972 23.1055 21.3279 21.8748C22.5586 20.6441 23.25 18.9749 23.25 17.2344V14.5C23.25 14.355 23.3076 14.2159 23.4102 14.1133C23.5127 14.0107 23.6518 13.9531 23.7969 13.9531C23.9419 13.9531 24.081 14.0107 24.1836 14.1133C24.2861 14.2159 24.3438 14.355 24.3438 14.5V17.2344C24.3438 19.2649 23.5371 21.2123 22.1013 22.6482C20.6655 24.084 18.7181 24.8906 16.6875 24.8906Z" fill="#959595"/>
<path d="M25.1641 16.4141C25.0921 16.4145 25.0208 16.4007 24.9541 16.3735C24.8875 16.3462 24.8269 16.3062 24.7758 16.2555L23.7969 15.2711L22.818 16.2555C22.767 16.3065 22.7065 16.3469 22.6398 16.3745C22.5732 16.4021 22.5018 16.4163 22.4297 16.4163C22.3576 16.4163 22.2862 16.4021 22.2196 16.3745C22.1529 16.3469 22.0924 16.3065 22.0414 16.2555C21.9904 16.2045 21.95 16.1439 21.9224 16.0773C21.8948 16.0107 21.8806 15.9393 21.8806 15.8672C21.8806 15.7951 21.8948 15.7237 21.9224 15.657C21.95 15.5904 21.9904 15.5299 22.0414 15.4789L23.4086 14.1117C23.4594 14.0605 23.5199 14.0198 23.5866 13.992C23.6532 13.9642 23.7247 13.95 23.7969 13.95C23.8691 13.95 23.9406 13.9642 24.0072 13.992C24.0738 14.0198 24.1343 14.0605 24.1852 14.1117L25.5524 15.4789C25.6036 15.5297 25.6443 15.5902 25.6721 15.6569C25.6998 15.7235 25.7141 15.795 25.7141 15.8672C25.7141 15.9394 25.6998 16.0109 25.6721 16.0775C25.6443 16.1441 25.6036 16.2046 25.5524 16.2555C25.5013 16.3062 25.4407 16.3462 25.374 16.3735C25.3074 16.4007 25.236 16.4145 25.1641 16.4141Z" fill="#959595"/>
</svg>
