<svg width="26" height="24" viewBox="0 0 26 24" fill="none" xmlns="http://www.w3.org/2000/svg">
<path d="M3.62201 19.479H16.4905M3.62201 4.13403H9.46701V9.97903H3.62201V4.13403ZM11.829 5.38103H16.7815H11.829ZM11.829 8.73153H16.7815H11.829ZM3.62201 12.6665H16.4905H3.62201ZM3.62201 16.073H16.4905H3.62201Z" stroke="#959595" stroke-width="1.2" stroke-miterlimit="10" stroke-linecap="round" stroke-linejoin="round"/>
<path d="M21.8925 22.4885H4.1075C3.69933 22.4885 3.29516 22.4081 2.91808 22.2518C2.541 22.0956 2.19838 21.8666 1.90981 21.578C1.62124 21.2893 1.39237 20.9466 1.23626 20.5695C1.08015 20.1923 0.999869 19.7881 1 19.38V1.51147H18.785V19.3805" stroke="#959595" stroke-width="1.2" stroke-miterlimit="10" stroke-linecap="round" stroke-linejoin="round"/>
<path d="M25 11.7629H18.785V19.3804C18.785 20.2046 19.1124 20.995 19.6952 21.5778C20.2779 22.1605 21.0683 22.4879 21.8925 22.4879C22.7167 22.4879 23.5071 22.1605 24.0898 21.5778C24.6726 20.995 25 20.2046 25 19.3804V11.7629Z" stroke="#959595" stroke-width="1.2" stroke-miterlimit="10" stroke-linecap="round" stroke-linejoin="round"/>
</svg>
