<svg width="22" height="27" 
viewBox="0 0 22 27" 
fill="none" 
xmlns="http://www.w3.org/2000/svg">
<path d="M0 22.6286C0 22.7229 -8.87861e-08 22.8171 0.0916666 22.9114V23.0057C0.0916666 23.0057 0.0916666 23.0057 0.0916666 23.1C0.0916666 23.1943 0.183334 23.2886 0.275 23.2886C0.366667 23.3829 0.458333 23.3829 0.458333 23.4771H0.55C0.733333 23.5714 0.825 23.5714 0.916667 23.5714H7.425C7.79167 25.1743 9.25833 26.4 11 26.4C12.7417 26.4 14.1167 25.1743 14.575 23.5714H21.0833C21.6333 23.5714 22 23.1943 22 22.6286C22 22.3457 21.9083 22.1571 21.725 21.9686L20.1667 19.5171V15.0857C20.1667 10.9371 17.5083 7.35429 13.8417 6.12857C14.3917 5.46857 14.6667 4.62 14.6667 3.77143C14.6667 1.69714 13.0167 0 11 0C8.98333 0 7.33333 1.69714 7.33333 3.77143C7.33333 4.62 7.60833 5.46857 8.15833 6.12857C4.49167 7.35429 1.83333 10.9371 1.83333 15.0857V19.5171L0.183333 22.0629C0.183333 22.0629 0.183333 22.1571 0.0916666 22.1571V22.2514C-8.87861e-08 22.44 0 22.5343 0 22.6286ZM11 24.5143C10.3583 24.5143 9.71667 24.1371 9.44167 23.5714H12.5583C12.2833 24.1371 11.6417 24.5143 11 24.5143ZM9.16667 3.77143C9.16667 2.73429 9.99167 1.88571 11 1.88571C12.0083 1.88571 12.8333 2.73429 12.8333 3.77143C12.8333 4.80857 12.0083 5.65714 11 5.65714C9.99167 5.65714 9.16667 4.80857 9.16667 3.77143ZM3.48333 20.3657C3.575 20.1771 3.66667 19.9886 3.66667 19.8V15.0857C3.66667 10.9371 6.96667 7.54286 11 7.54286C15.0333 7.54286 18.3333 10.9371 18.3333 15.0857V19.8C18.3333 19.9886 18.425 20.1771 18.5167 20.3657L19.4333 21.6857H2.65833L3.48333 20.3657Z" fill="#959595"/>
</svg>
