<svg 
          width="18.899999618530273" 
          height="21.600000381469727" 
          fill="none" 
          xmlns="http://www.w3.org/2000/svg">
          <path d="M 9.449999809265137 21.600000381469727 C 10.749374866485596 21.600000381469727 11.8125 20.603078484535217 11.8125 19.38461685180664 L 7.087499618530273 19.38461685180664 C 7.087499618530273 20.603078484535217 8.150624752044678 21.600000381469727 9.449999809265137 21.600000381469727 Z M 16.537500381469727 14.95384693145752 L 16.537500381469727 9.415385246276855 C 16.537500381469727 6.014769792556763 14.612062454223633 3.1679999828338623 11.221875190734863 2.414769172668457 L 11.221875190734863 1.6615386009216309 C 11.221875190734863 0.7421539425849915 10.43043726682663 0 9.449999809265137 0 C 8.469562351703644 0 7.678124904632568 0.7421539425849915 7.678124904632568 1.6615386009216309 L 7.678124904632568 2.414769172668457 C 4.299750089645386 3.1679999828338623 2.362499952316284 6.003692865371704 2.362499952316284 9.415385246276855 L 2.362499952316284 14.95384693145752 L 0 17.169231414794922 L 0 18.27692413330078 L 18.899999618530273 18.27692413330078 L 18.899999618530273 17.169231414794922 L 16.537500381469727 14.95384693145752 Z M 14.174999237060547 16.061538696289062 L 4.724999904632568 16.061538696289062 L 4.724999904632568 9.415385246276855 C 4.724999904632568 6.668308258056641 6.508687257766724 4.430769443511963 9.449999809265137 4.430769443511963 C 12.39131236076355 4.430769443511963 14.174999237060547 6.668308258056641 14.174999237060547 9.415385246276855 L 14.174999237060547 16.061538696289062 Z" fill="rgb(35,228,100)"/>
        </svg>
        