<svg width="26" height="26" viewBox="0 0 26 26" fill="none" xmlns="http://www.w3.org/2000/svg">
<path d="M25.5667 0H5.63333C5.51841 0 5.40819 0.0456546 5.32692 0.12692C5.24565 0.208186 5.2 0.318406 5.2 0.433333V6.06667H0.433333C0.318406 6.06667 0.208186 6.11232 0.12692 6.19359C0.0456546 6.27485 0 6.38507 0 6.5V22.9667C0.00103195 23.7708 0.320946 24.5418 0.889583 25.1104C1.45822 25.6791 2.22916 25.999 3.03333 26H22.9667C23.7708 25.999 24.5418 25.6791 25.1104 25.1104C25.6791 24.5418 25.999 23.7708 26 22.9667V0.433333C26 0.318406 25.9543 0.208186 25.8731 0.12692C25.7918 0.0456546 25.6816 0 25.5667 0ZM0.866667 22.9667V6.93333H2.6V23.4H3.46667V6.93333H5.2V22.9667C5.19931 23.5411 4.97082 24.0918 4.56464 24.498C4.15846 24.9042 3.60776 25.1326 3.03333 25.1333C2.45901 25.1323 1.90851 24.9037 1.50241 24.4976C1.0963 24.0915 0.867698 23.541 0.866667 22.9667ZM25.1333 22.9667C25.1326 23.5411 24.9042 24.0918 24.498 24.498C24.0918 24.9042 23.5411 25.1326 22.9667 25.1333H5.15667C5.16057 25.129 5.16447 25.1242 5.1688 25.1199C5.20087 25.0883 5.23077 25.0536 5.26153 25.0202C5.2923 24.9869 5.33347 24.9444 5.36727 24.9041C5.40107 24.8638 5.421 24.833 5.4483 24.7975C5.48037 24.7542 5.51373 24.7134 5.54407 24.6675C5.56877 24.6307 5.59087 24.5917 5.61427 24.554C5.64243 24.508 5.6719 24.4634 5.6979 24.4162C5.71957 24.3767 5.73777 24.3347 5.7577 24.294C5.7811 24.2463 5.80623 24.1995 5.82703 24.1501C5.84783 24.1007 5.8604 24.0604 5.8773 24.0153C5.8942 23.9703 5.915 23.92 5.93017 23.8706C5.94533 23.8212 5.95747 23.7679 5.97047 23.7168C5.98347 23.6656 5.99647 23.6253 6.006 23.5785C6.01857 23.5179 6.02593 23.4555 6.03503 23.3935C6.04067 23.3541 6.0489 23.3159 6.0528 23.2761C6.06261 23.1732 6.06724 23.07 6.06667 22.9667V0.866667H25.1333V22.9667Z" fill="#959595"/>
<path d="M11.7 18.1994H20.3667C20.4785 18.1995 20.586 18.1563 20.6668 18.0789C20.7476 18.0016 20.7953 17.896 20.8 17.7842L21.2333 7.38423C21.2358 7.32581 21.2264 7.2675 21.2057 7.21281C21.185 7.15811 21.1535 7.10817 21.113 7.06598C21.0725 7.0238 21.0239 6.99024 20.9701 6.96733C20.9163 6.94443 20.8585 6.93265 20.8 6.9327H19.0667V4.76603C19.066 4.19161 18.8375 3.64091 18.4313 3.23473C18.0251 2.82855 17.4744 2.60005 16.9 2.59937H15.1667C14.5922 2.60005 14.0415 2.82855 13.6354 3.23473C13.2292 3.64091 13.0007 4.19161 13 4.76603V6.9327H11.2667C11.2082 6.93265 11.1503 6.94443 11.0965 6.96733C11.0427 6.99024 10.9941 7.0238 10.9536 7.06598C10.9131 7.10817 10.8816 7.15811 10.8609 7.21281C10.8403 7.2675 10.8309 7.32581 10.8333 7.38423L11.2667 17.7842C11.2714 17.896 11.3191 18.0016 11.3998 18.0789C11.4806 18.1563 11.5882 18.1995 11.7 18.1994ZM13.8667 4.76603C13.8667 4.42125 14.0036 4.09059 14.2474 3.84679C14.4912 3.603 14.8219 3.46603 15.1667 3.46603H16.9C17.2448 3.46603 17.5754 3.603 17.8192 3.84679C18.063 4.09059 18.2 4.42125 18.2 4.76603V6.9327H13.8667V4.76603ZM13 7.79936V9.96603H13.8667V7.79936H18.2V9.96603H19.0667V7.79936H20.348L19.9511 17.3327H12.1156L11.7186 7.79936H13Z" fill="#959595"/>
<path d="M9.53326 19.9348H8.6666V20.8015H9.53326V19.9348Z" fill="#959595"/>
<path d="M23.4 19.9348H10.4V20.8015H23.4V19.9348Z" fill="#959595"/>
<path d="M23.3999 21.6677H8.6666V22.5344H23.3999V21.6677Z" fill="#959595"/>
</svg>
