<svg width="25" height="25" viewBox="0 0 25 25" fill="none" xmlns="http://www.w3.org/2000/svg">
<path fill-rule="evenodd" clip-rule="evenodd" d="M6.59623 4.52661V4.23289C6.59623 1.90313 8.47614 0 10.7775 0H14.1907C16.4921 0 18.372 1.90313 18.372 4.23289V4.52661H21.3135C23.3426 4.52661 25 6.20447 25 8.25866V21.2679C25 23.3221 23.3426 25 21.3135 25H3.68654C1.65741 25 0 23.3221 0 21.2679V8.25866C0 6.20447 1.65741 4.52661 3.68654 4.52661H6.59623ZM3.68654 23.3943H21.3135C22.4671 23.3943 23.4139 22.4359 23.4139 21.2679V8.25866C23.4139 7.09075 22.4671 6.13233 21.3135 6.13233H17.5186H17.1967C17.1417 6.13233 17.0879 6.12702 17.0357 6.11686C16.9836 6.127 16.9298 6.13233 16.8748 6.13233H7.44955H3.68654C2.53288 6.13233 1.58613 7.09075 1.58613 8.25866V16.8365H7.71198C8.14904 16.8365 8.50663 17.1985 8.50663 17.641C8.50663 18.0834 8.14904 18.4455 7.71198 18.4455H1.58613V20.0544H13.3382C13.7752 20.0544 14.1328 20.4164 14.1328 20.8589C14.1328 21.3013 13.7752 21.6633 13.3382 21.6633H1.62308C1.80791 22.6446 2.66627 23.3943 3.68654 23.3943ZM16.6651 4.20072C16.6479 2.83921 15.5394 1.7277 14.1907 1.7277H10.7775C9.42873 1.7277 8.32028 2.83921 8.30306 4.20072C8.30194 4.29007 8.3327 4.36734 8.3947 4.43091C8.45671 4.49448 8.53267 4.52663 8.6209 4.52663H16.3473C16.4356 4.52663 16.5115 4.49451 16.5735 4.43091C16.6355 4.36734 16.6663 4.29004 16.6651 4.20072Z" fill="#959595"/>
</svg>
