<svg width="26" height="24" viewBox="0 0 26 24" fill="none" xmlns="http://www.w3.org/2000/svg">
<path d="M25.2128 8.40006L14.1171 0.362932C13.7924 0.127046 13.4013 0 13 0C12.5987 0 12.2076 0.127046 11.8829 0.362932L0.78716 8.40011C0.543731 8.57697 0.345542 8.80885 0.208748 9.07686C0.0719545 9.34486 0.000428151 9.6414 0 9.94229L0 21.4538C0.000568137 21.9586 0.201381 22.4427 0.558383 22.7997C0.915385 23.1567 1.39942 23.3575 1.9043 23.3581H24.0957C24.6006 23.3575 25.0846 23.1567 25.4416 22.7997C25.7986 22.4427 25.9994 21.9586 26 21.4538V9.94229C25.9996 9.64138 25.928 9.34484 25.7912 9.07683C25.6544 8.80882 25.4562 8.57692 25.2128 8.40006ZM1.23402 9.01697L12.3297 0.979845C12.5245 0.838285 12.7592 0.762041 13 0.762041C13.2408 0.762041 13.4755 0.838285 13.6703 0.979845L24.7659 9.01692C24.8321 9.06505 24.8928 9.12019 24.9472 9.18137L18.3722 13.9438C18.4785 13.1761 18.419 12.3945 18.1977 11.6517C17.9764 10.9089 17.5985 10.2222 17.0894 9.63783C16.5803 9.05344 15.9519 8.58494 15.2465 8.26391C14.5411 7.94288 13.775 7.77677 13 7.77677C12.225 7.77677 11.4589 7.94288 10.7535 8.26391C10.0481 8.58494 9.41968 9.05344 8.91061 9.63783C8.40153 10.2222 8.02362 10.9089 7.80233 11.6517C7.58105 12.3945 7.52153 13.1761 7.62779 13.9438L1.05284 9.18136C1.10714 9.1202 1.16789 9.06508 1.23402 9.01697ZM17.6617 13.2029C17.6619 13.683 17.5877 14.1603 17.4418 14.6177L13.6703 17.3495C13.4755 17.4911 13.2408 17.5673 13 17.5673C12.7592 17.5673 12.5245 17.4911 12.3297 17.3495L8.55818 14.6177C8.35401 13.9767 8.291 13.2991 8.37346 12.6315C8.45593 11.9638 8.68191 11.3219 9.0359 10.7499C9.38989 10.1778 9.86349 9.68917 10.4242 9.31746C10.9849 8.94575 11.6194 8.69979 12.2841 8.59649C12.9489 8.49318 13.6281 8.53497 14.2752 8.71898C14.9222 8.903 15.5218 9.22487 16.0327 9.66251C16.5436 10.1001 16.9537 10.6432 17.2349 11.2543C17.5161 11.8654 17.6617 12.5302 17.6617 13.2029ZM0.761719 21.4538V9.94229C0.761719 9.93206 0.762364 9.92191 0.762636 9.91171L7.85696 15.0503L0.903301 22.004C0.810242 21.8355 0.761522 21.6462 0.761719 21.4538ZM24.0957 22.5963H1.9043C1.75639 22.5964 1.6099 22.5676 1.47303 22.5116L8.48173 15.5029L11.8829 17.9664C12.2076 18.2023 12.5987 18.3294 13 18.3294C13.4013 18.3294 13.7924 18.2023 14.1171 17.9664L17.6053 15.4398L24.6292 22.4637C24.4649 22.551 24.2817 22.5965 24.0957 22.5963ZM25.2383 21.4538C25.2384 21.6083 25.207 21.7613 25.146 21.9033L18.23 14.9873L25.2374 9.91171C25.2376 9.92191 25.2383 9.93206 25.2383 9.94229V21.4538ZM14.7773 10.9177C14.7773 10.8677 14.7675 10.8182 14.7484 10.772C14.7292 10.7258 14.7012 10.6838 14.6658 10.6484C14.6304 10.6131 14.5884 10.585 14.5422 10.5659C14.496 10.5467 14.4465 10.5369 14.3965 10.5369H11.6035C11.5025 10.5369 11.4056 10.577 11.3342 10.6484C11.2628 10.7199 11.2227 10.8167 11.2227 10.9177C11.2227 11.0188 11.2628 11.1156 11.3342 11.1871C11.4056 11.2585 11.5025 11.2986 11.6035 11.2986H12.1113C12.3475 11.2989 12.5778 11.3723 12.7707 11.5087C12.9635 11.645 13.1094 11.8377 13.1884 12.0603H11.6035C11.5025 12.0603 11.4056 12.1005 11.3342 12.1719C11.2628 12.2433 11.2227 12.3402 11.2227 12.4412C11.2227 12.5422 11.2628 12.6391 11.3342 12.7105C11.4056 12.7819 11.5025 12.822 11.6035 12.822H13.1884C13.1094 13.0446 12.9635 13.2373 12.7707 13.3737C12.5778 13.5101 12.3475 13.5835 12.1113 13.5838H11.6035C11.5289 13.5838 11.456 13.6057 11.3937 13.6468C11.3315 13.6878 11.2827 13.7463 11.2534 13.8149C11.224 13.8834 11.2155 13.9591 11.2288 14.0325C11.242 14.1059 11.2766 14.1738 11.3281 14.2277L13.3593 16.3544C13.4291 16.4274 13.525 16.4698 13.626 16.4721C13.727 16.4744 13.8248 16.4365 13.8978 16.3667C13.9709 16.2969 14.0132 16.201 14.0155 16.1C14.0179 15.999 13.98 15.9013 13.9102 15.8282L12.4629 14.313C12.8345 14.2424 13.1769 14.063 13.4464 13.7975C13.716 13.5321 13.9006 13.1926 13.9769 12.822H14.3965C14.4975 12.822 14.5944 12.7819 14.6658 12.7105C14.7372 12.6391 14.7773 12.5422 14.7773 12.4412C14.7773 12.3402 14.7372 12.2433 14.6658 12.1719C14.5944 12.1005 14.4975 12.0603 14.3965 12.0603H13.9773C13.9208 11.784 13.8035 11.5238 13.6337 11.2986H14.3965C14.4465 11.2986 14.496 11.2888 14.5422 11.2696C14.5884 11.2505 14.6304 11.2224 14.6658 11.1871C14.7012 11.1517 14.7292 11.1097 14.7484 11.0635C14.7675 11.0173 14.7773 10.9678 14.7773 10.9177Z" fill="white" fill-opacity="0.75"/>
</svg>
