<svg width="25" height="22" viewBox="0 0 25 22" fill="none" xmlns="http://www.w3.org/2000/svg">
<path d="M9.76179 5.97974V19.7483C9.76179 20.0802 9.62992 20.3986 9.39518 20.6333C9.16045 20.8681 8.84207 21 8.51011 21H7.25842C6.92645 21 6.60808 20.8681 6.37335 20.6333C6.13861 20.3986 6.00674 20.0802 6.00674 19.7483V13.4898M19.7753 5.97974C20.7712 5.97974 21.7263 6.37536 22.4305 7.07957C23.1347 7.78378 23.5303 8.73889 23.5303 9.73479C23.5303 10.7307 23.1347 11.6858 22.4305 12.39C21.7263 13.0942 20.7712 13.4898 19.7753 13.4898V5.97974Z" stroke="#959595" stroke-linecap="round" stroke-linejoin="round"/>
<path d="M12.2652 5.97978L17.9278 1.26093C18.0923 1.12388 18.2925 1.03657 18.5049 1.00922C18.7173 0.981878 18.9331 1.01563 19.127 1.10654C19.3208 1.19744 19.4848 1.34172 19.5996 1.52247C19.7145 1.70322 19.7754 1.91296 19.7753 2.1271V17.3426C19.7754 17.5567 19.7145 17.7665 19.5996 17.9472C19.4848 18.128 19.3208 18.2722 19.127 18.3631C18.9331 18.454 18.7173 18.4878 18.5049 18.4605C18.2925 18.4331 18.0923 18.3458 17.9278 18.2087L12.2652 13.4899H2.25168C1.91972 13.4899 1.60135 13.358 1.36661 13.1233C1.13187 12.8885 1 12.5702 1 12.2382V7.23147C1 6.8995 1.13187 6.58113 1.36661 6.34639C1.60135 6.11166 1.91972 5.97978 2.25168 5.97978H12.2652Z" stroke="#959595" stroke-linecap="round" stroke-linejoin="round"/>
</svg>
